<mxfile host="app.diagrams.net" agent="Mozilla/5.0 (Windows NT 10.0; Win64; x64) AppleWebKit/537.36 (KHTML, like Gecko) Chrome/134.0.0.0 Safari/537.36" version="26.1.1">
  <diagram name="Page-1" id="F_HFUxhtkj3owDWguXbg">
    <mxGraphModel dx="2304" dy="649" grid="1" gridSize="10" guides="1" tooltips="1" connect="1" arrows="1" fold="1" page="1" pageScale="1" pageWidth="827" pageHeight="1169" math="0" shadow="0">
      <root>
        <mxCell id="0" />
        <mxCell id="1" parent="0" />
        <mxCell id="nQa_9QxDwxB9bTM9RDev-1" value="" style="whiteSpace=wrap;html=1;aspect=fixed;" vertex="1" parent="1">
          <mxGeometry x="200" y="70" width="2350" height="2350" as="geometry" />
        </mxCell>
        <mxCell id="nQa_9QxDwxB9bTM9RDev-2" value="&lt;b&gt;&lt;font style=&quot;font-size: 48px;&quot;&gt;O-B-M Events&lt;/font&gt;&lt;/b&gt;" style="text;html=1;align=center;verticalAlign=middle;whiteSpace=wrap;rounded=0;" vertex="1" parent="1">
          <mxGeometry x="1110" y="90" width="617.5" height="110" as="geometry" />
        </mxCell>
        <mxCell id="nQa_9QxDwxB9bTM9RDev-3" value="&lt;p data-end=&quot;165&quot; data-start=&quot;147&quot;&gt;&lt;strong data-end=&quot;163&quot; data-start=&quot;147&quot;&gt;Organisateur&lt;/strong&gt;&lt;/p&gt;" style="shape=umlActor;verticalLabelPosition=bottom;verticalAlign=top;html=1;outlineConnect=0;" vertex="1" parent="1">
          <mxGeometry x="-60" y="560" width="80" height="90" as="geometry" />
        </mxCell>
        <mxCell id="nQa_9QxDwxB9bTM9RDev-14" value="" style="group" vertex="1" connectable="0" parent="1">
          <mxGeometry x="350" y="660" width="150" height="105" as="geometry" />
        </mxCell>
        <mxCell id="nQa_9QxDwxB9bTM9RDev-15" value="" style="ellipse;whiteSpace=wrap;html=1;" vertex="1" parent="nQa_9QxDwxB9bTM9RDev-14">
          <mxGeometry width="150" height="105.00000000000001" as="geometry" />
        </mxCell>
        <mxCell id="nQa_9QxDwxB9bTM9RDev-16" value="Consulter la liste des inscrits" style="text;html=1;align=center;verticalAlign=middle;whiteSpace=wrap;rounded=0;" vertex="1" parent="nQa_9QxDwxB9bTM9RDev-14">
          <mxGeometry x="37.5" y="32.8125" width="75" height="39.37500000000001" as="geometry" />
        </mxCell>
        <mxCell id="nQa_9QxDwxB9bTM9RDev-20" value="" style="group" vertex="1" connectable="0" parent="1">
          <mxGeometry x="339" y="520" width="160" height="105" as="geometry" />
        </mxCell>
        <mxCell id="nQa_9QxDwxB9bTM9RDev-21" value="" style="ellipse;whiteSpace=wrap;html=1;" vertex="1" parent="nQa_9QxDwxB9bTM9RDev-20">
          <mxGeometry width="150" height="105.00000000000001" as="geometry" />
        </mxCell>
        <mxCell id="nQa_9QxDwxB9bTM9RDev-13" value="Supprimer un événement" style="text;html=1;align=center;verticalAlign=middle;whiteSpace=wrap;rounded=0;" vertex="1" parent="nQa_9QxDwxB9bTM9RDev-20">
          <mxGeometry x="35" y="31.875" width="80" height="41.25" as="geometry" />
        </mxCell>
        <mxCell id="nQa_9QxDwxB9bTM9RDev-23" value="" style="group" vertex="1" connectable="0" parent="1">
          <mxGeometry x="339" y="390" width="150" height="105" as="geometry" />
        </mxCell>
        <mxCell id="nQa_9QxDwxB9bTM9RDev-24" value="" style="ellipse;whiteSpace=wrap;html=1;" vertex="1" parent="nQa_9QxDwxB9bTM9RDev-23">
          <mxGeometry width="150" height="105.00000000000001" as="geometry" />
        </mxCell>
        <mxCell id="nQa_9QxDwxB9bTM9RDev-9" value="Modifier un événement" style="text;html=1;align=center;verticalAlign=middle;whiteSpace=wrap;rounded=0;" vertex="1" parent="nQa_9QxDwxB9bTM9RDev-23">
          <mxGeometry x="45" y="37.5" width="60" height="30" as="geometry" />
        </mxCell>
        <mxCell id="nQa_9QxDwxB9bTM9RDev-26" value="" style="group" vertex="1" connectable="0" parent="1">
          <mxGeometry x="339" y="250" width="150" height="105" as="geometry" />
        </mxCell>
        <mxCell id="nQa_9QxDwxB9bTM9RDev-27" value="" style="ellipse;whiteSpace=wrap;html=1;" vertex="1" parent="nQa_9QxDwxB9bTM9RDev-26">
          <mxGeometry width="150" height="105.00000000000001" as="geometry" />
        </mxCell>
        <mxCell id="nQa_9QxDwxB9bTM9RDev-28" value="Créer un événement" style="text;html=1;align=center;verticalAlign=middle;whiteSpace=wrap;rounded=0;" vertex="1" parent="nQa_9QxDwxB9bTM9RDev-26">
          <mxGeometry x="45" y="37.5" width="60" height="30" as="geometry" />
        </mxCell>
        <mxCell id="nQa_9QxDwxB9bTM9RDev-31" value="" style="group" vertex="1" connectable="0" parent="1">
          <mxGeometry x="350" y="870" width="150" height="110" as="geometry" />
        </mxCell>
        <mxCell id="nQa_9QxDwxB9bTM9RDev-32" value="" style="ellipse;whiteSpace=wrap;html=1;" vertex="1" parent="nQa_9QxDwxB9bTM9RDev-31">
          <mxGeometry width="150" height="110" as="geometry" />
        </mxCell>
        <mxCell id="nQa_9QxDwxB9bTM9RDev-33" value="Inscription" style="text;html=1;align=center;verticalAlign=middle;whiteSpace=wrap;rounded=0;" vertex="1" parent="nQa_9QxDwxB9bTM9RDev-31">
          <mxGeometry x="37.5" y="34.375" width="75" height="41.25" as="geometry" />
        </mxCell>
        <mxCell id="nQa_9QxDwxB9bTM9RDev-34" value="" style="endArrow=none;html=1;rounded=0;exitX=0.5;exitY=0.5;exitDx=0;exitDy=0;exitPerimeter=0;entryX=0;entryY=0.5;entryDx=0;entryDy=0;" edge="1" parent="1" source="nQa_9QxDwxB9bTM9RDev-3" target="nQa_9QxDwxB9bTM9RDev-27">
          <mxGeometry width="50" height="50" relative="1" as="geometry">
            <mxPoint x="740" y="750" as="sourcePoint" />
            <mxPoint x="790" y="700" as="targetPoint" />
          </mxGeometry>
        </mxCell>
        <mxCell id="nQa_9QxDwxB9bTM9RDev-35" value="" style="endArrow=none;html=1;rounded=0;exitX=0.5;exitY=0.5;exitDx=0;exitDy=0;exitPerimeter=0;entryX=0;entryY=0.5;entryDx=0;entryDy=0;" edge="1" parent="1" source="nQa_9QxDwxB9bTM9RDev-3" target="nQa_9QxDwxB9bTM9RDev-24">
          <mxGeometry width="50" height="50" relative="1" as="geometry">
            <mxPoint x="-10" y="615" as="sourcePoint" />
            <mxPoint x="349" y="313" as="targetPoint" />
          </mxGeometry>
        </mxCell>
        <mxCell id="nQa_9QxDwxB9bTM9RDev-36" value="" style="endArrow=none;html=1;rounded=0;exitX=0.5;exitY=0.5;exitDx=0;exitDy=0;exitPerimeter=0;entryX=0;entryY=0.5;entryDx=0;entryDy=0;" edge="1" parent="1" source="nQa_9QxDwxB9bTM9RDev-3" target="nQa_9QxDwxB9bTM9RDev-21">
          <mxGeometry width="50" height="50" relative="1" as="geometry">
            <mxPoint x="-10" y="615" as="sourcePoint" />
            <mxPoint x="349" y="453" as="targetPoint" />
          </mxGeometry>
        </mxCell>
        <mxCell id="nQa_9QxDwxB9bTM9RDev-37" value="" style="endArrow=none;html=1;rounded=0;exitX=0.5;exitY=0.5;exitDx=0;exitDy=0;exitPerimeter=0;entryX=0;entryY=0.5;entryDx=0;entryDy=0;" edge="1" parent="1" source="nQa_9QxDwxB9bTM9RDev-3" target="nQa_9QxDwxB9bTM9RDev-15">
          <mxGeometry width="50" height="50" relative="1" as="geometry">
            <mxPoint x="-10" y="615" as="sourcePoint" />
            <mxPoint x="349" y="583" as="targetPoint" />
          </mxGeometry>
        </mxCell>
        <mxCell id="nQa_9QxDwxB9bTM9RDev-39" value="" style="endArrow=none;html=1;rounded=0;exitX=0.5;exitY=0.5;exitDx=0;exitDy=0;exitPerimeter=0;entryX=0.064;entryY=0.348;entryDx=0;entryDy=0;entryPerimeter=0;" edge="1" parent="1" source="nQa_9QxDwxB9bTM9RDev-3" target="nQa_9QxDwxB9bTM9RDev-32">
          <mxGeometry width="50" height="50" relative="1" as="geometry">
            <mxPoint x="-10" y="615" as="sourcePoint" />
            <mxPoint x="373" y="837" as="targetPoint" />
          </mxGeometry>
        </mxCell>
        <mxCell id="nQa_9QxDwxB9bTM9RDev-40" value="&lt;p data-end=&quot;359&quot; data-start=&quot;342&quot;&gt;&lt;strong data-end=&quot;357&quot; data-start=&quot;342&quot;&gt;Participant&lt;/strong&gt;&lt;/p&gt;" style="shape=umlActor;verticalLabelPosition=bottom;verticalAlign=top;html=1;outlineConnect=0;" vertex="1" parent="1">
          <mxGeometry x="-60" y="1470" width="80" height="90" as="geometry" />
        </mxCell>
        <mxCell id="nQa_9QxDwxB9bTM9RDev-41" value="" style="group" vertex="1" connectable="0" parent="1">
          <mxGeometry x="350" y="1190" width="150" height="110" as="geometry" />
        </mxCell>
        <mxCell id="nQa_9QxDwxB9bTM9RDev-42" value="" style="ellipse;whiteSpace=wrap;html=1;" vertex="1" parent="nQa_9QxDwxB9bTM9RDev-41">
          <mxGeometry width="150" height="110" as="geometry" />
        </mxCell>
        <mxCell id="nQa_9QxDwxB9bTM9RDev-43" value="Consulter la liste des événements" style="text;html=1;align=center;verticalAlign=middle;whiteSpace=wrap;rounded=0;" vertex="1" parent="nQa_9QxDwxB9bTM9RDev-41">
          <mxGeometry x="37.5" y="34.375" width="75" height="41.25" as="geometry" />
        </mxCell>
        <mxCell id="nQa_9QxDwxB9bTM9RDev-44" value="" style="group" vertex="1" connectable="0" parent="1">
          <mxGeometry x="350" y="1340" width="150" height="110" as="geometry" />
        </mxCell>
        <mxCell id="nQa_9QxDwxB9bTM9RDev-45" value="" style="ellipse;whiteSpace=wrap;html=1;" vertex="1" parent="nQa_9QxDwxB9bTM9RDev-44">
          <mxGeometry width="150" height="110" as="geometry" />
        </mxCell>
        <mxCell id="nQa_9QxDwxB9bTM9RDev-46" value="S’inscrire à un événement" style="text;html=1;align=center;verticalAlign=middle;whiteSpace=wrap;rounded=0;" vertex="1" parent="nQa_9QxDwxB9bTM9RDev-44">
          <mxGeometry x="37.5" y="34.375" width="75" height="41.25" as="geometry" />
        </mxCell>
        <mxCell id="nQa_9QxDwxB9bTM9RDev-47" value="" style="group" vertex="1" connectable="0" parent="1">
          <mxGeometry x="360" y="1490" width="150" height="110" as="geometry" />
        </mxCell>
        <mxCell id="nQa_9QxDwxB9bTM9RDev-48" value="" style="ellipse;whiteSpace=wrap;html=1;" vertex="1" parent="nQa_9QxDwxB9bTM9RDev-47">
          <mxGeometry width="150" height="110" as="geometry" />
        </mxCell>
        <mxCell id="nQa_9QxDwxB9bTM9RDev-49" value="Recevoir une confirmation d’inscription" style="text;html=1;align=center;verticalAlign=middle;whiteSpace=wrap;rounded=0;" vertex="1" parent="nQa_9QxDwxB9bTM9RDev-47">
          <mxGeometry x="37.5" y="34.375" width="75" height="41.25" as="geometry" />
        </mxCell>
        <mxCell id="nQa_9QxDwxB9bTM9RDev-56" value="" style="group" vertex="1" connectable="0" parent="1">
          <mxGeometry x="360" y="1644" width="150" height="110" as="geometry" />
        </mxCell>
        <mxCell id="nQa_9QxDwxB9bTM9RDev-57" value="" style="ellipse;whiteSpace=wrap;html=1;" vertex="1" parent="nQa_9QxDwxB9bTM9RDev-56">
          <mxGeometry width="150" height="110" as="geometry" />
        </mxCell>
        <mxCell id="nQa_9QxDwxB9bTM9RDev-58" value="Voir l’historique des events inscription" style="text;html=1;align=center;verticalAlign=middle;whiteSpace=wrap;rounded=0;" vertex="1" parent="nQa_9QxDwxB9bTM9RDev-56">
          <mxGeometry x="18.75" y="34.370000000000005" width="112.5" height="41.25" as="geometry" />
        </mxCell>
        <mxCell id="nQa_9QxDwxB9bTM9RDev-59" value="" style="endArrow=none;html=1;rounded=0;exitX=0.5;exitY=0.5;exitDx=0;exitDy=0;exitPerimeter=0;entryX=0.022;entryY=0.704;entryDx=0;entryDy=0;entryPerimeter=0;" edge="1" parent="1" source="nQa_9QxDwxB9bTM9RDev-40" target="nQa_9QxDwxB9bTM9RDev-42">
          <mxGeometry width="50" height="50" relative="1" as="geometry">
            <mxPoint x="470" y="1460" as="sourcePoint" />
            <mxPoint x="520" y="1410" as="targetPoint" />
          </mxGeometry>
        </mxCell>
        <mxCell id="nQa_9QxDwxB9bTM9RDev-60" value="" style="endArrow=none;html=1;rounded=0;exitX=0.5;exitY=0.5;exitDx=0;exitDy=0;exitPerimeter=0;entryX=0;entryY=0.5;entryDx=0;entryDy=0;" edge="1" parent="1" source="nQa_9QxDwxB9bTM9RDev-40" target="nQa_9QxDwxB9bTM9RDev-45">
          <mxGeometry width="50" height="50" relative="1" as="geometry">
            <mxPoint x="-10" y="1525" as="sourcePoint" />
            <mxPoint x="363" y="1277" as="targetPoint" />
          </mxGeometry>
        </mxCell>
        <mxCell id="nQa_9QxDwxB9bTM9RDev-61" value="" style="endArrow=none;html=1;rounded=0;exitX=0.5;exitY=0.5;exitDx=0;exitDy=0;exitPerimeter=0;entryX=0.03;entryY=0.401;entryDx=0;entryDy=0;entryPerimeter=0;" edge="1" parent="1" source="nQa_9QxDwxB9bTM9RDev-40" target="nQa_9QxDwxB9bTM9RDev-48">
          <mxGeometry width="50" height="50" relative="1" as="geometry">
            <mxPoint x="-10" y="1525" as="sourcePoint" />
            <mxPoint x="360" y="1405" as="targetPoint" />
          </mxGeometry>
        </mxCell>
        <mxCell id="nQa_9QxDwxB9bTM9RDev-62" value="" style="endArrow=none;html=1;rounded=0;exitX=0.5;exitY=0.5;exitDx=0;exitDy=0;exitPerimeter=0;entryX=0.03;entryY=0.294;entryDx=0;entryDy=0;entryPerimeter=0;" edge="1" parent="1" source="nQa_9QxDwxB9bTM9RDev-40" target="nQa_9QxDwxB9bTM9RDev-57">
          <mxGeometry width="50" height="50" relative="1" as="geometry">
            <mxPoint x="-10" y="1525" as="sourcePoint" />
            <mxPoint x="375" y="1544" as="targetPoint" />
          </mxGeometry>
        </mxCell>
        <mxCell id="nQa_9QxDwxB9bTM9RDev-63" value="&lt;p data-end=&quot;359&quot; data-start=&quot;342&quot;&gt;&lt;b&gt;Administrateur&lt;/b&gt;&lt;/p&gt;" style="shape=umlActor;verticalLabelPosition=bottom;verticalAlign=top;html=1;outlineConnect=0;" vertex="1" parent="1">
          <mxGeometry x="-60" y="2020" width="80" height="90" as="geometry" />
        </mxCell>
        <mxCell id="nQa_9QxDwxB9bTM9RDev-64" value="" style="group" vertex="1" connectable="0" parent="1">
          <mxGeometry x="360" y="1860" width="150" height="110" as="geometry" />
        </mxCell>
        <mxCell id="nQa_9QxDwxB9bTM9RDev-65" value="" style="ellipse;whiteSpace=wrap;html=1;" vertex="1" parent="nQa_9QxDwxB9bTM9RDev-64">
          <mxGeometry width="150" height="110" as="geometry" />
        </mxCell>
        <mxCell id="nQa_9QxDwxB9bTM9RDev-66" value="Gérer les utilisateurs" style="text;html=1;align=center;verticalAlign=middle;whiteSpace=wrap;rounded=0;" vertex="1" parent="nQa_9QxDwxB9bTM9RDev-64">
          <mxGeometry x="18.75" y="34.370000000000005" width="112.5" height="41.25" as="geometry" />
        </mxCell>
        <mxCell id="nQa_9QxDwxB9bTM9RDev-67" value="" style="group" vertex="1" connectable="0" parent="1">
          <mxGeometry x="360" y="2010" width="150" height="110" as="geometry" />
        </mxCell>
        <mxCell id="nQa_9QxDwxB9bTM9RDev-68" value="" style="ellipse;whiteSpace=wrap;html=1;" vertex="1" parent="nQa_9QxDwxB9bTM9RDev-67">
          <mxGeometry width="150" height="110" as="geometry" />
        </mxCell>
        <mxCell id="nQa_9QxDwxB9bTM9RDev-69" value="Gére les&amp;nbsp; événement avant sa publication" style="text;html=1;align=center;verticalAlign=middle;whiteSpace=wrap;rounded=0;" vertex="1" parent="nQa_9QxDwxB9bTM9RDev-67">
          <mxGeometry x="18.75" y="34.370000000000005" width="112.5" height="41.25" as="geometry" />
        </mxCell>
        <mxCell id="nQa_9QxDwxB9bTM9RDev-70" value="" style="group" vertex="1" connectable="0" parent="1">
          <mxGeometry x="360" y="2150" width="150" height="110" as="geometry" />
        </mxCell>
        <mxCell id="nQa_9QxDwxB9bTM9RDev-71" value="" style="ellipse;whiteSpace=wrap;html=1;" vertex="1" parent="nQa_9QxDwxB9bTM9RDev-70">
          <mxGeometry width="150" height="110" as="geometry" />
        </mxCell>
        <mxCell id="nQa_9QxDwxB9bTM9RDev-72" value="Gérer les inscriptions" style="text;html=1;align=center;verticalAlign=middle;whiteSpace=wrap;rounded=0;" vertex="1" parent="nQa_9QxDwxB9bTM9RDev-70">
          <mxGeometry x="18.75" y="34.370000000000005" width="112.5" height="41.25" as="geometry" />
        </mxCell>
        <mxCell id="nQa_9QxDwxB9bTM9RDev-73" value="" style="endArrow=none;html=1;rounded=0;exitX=0.5;exitY=0.5;exitDx=0;exitDy=0;exitPerimeter=0;entryX=0.022;entryY=0.643;entryDx=0;entryDy=0;entryPerimeter=0;" edge="1" parent="1" source="nQa_9QxDwxB9bTM9RDev-63" target="nQa_9QxDwxB9bTM9RDev-65">
          <mxGeometry width="50" height="50" relative="1" as="geometry">
            <mxPoint x="760" y="1940" as="sourcePoint" />
            <mxPoint x="810" y="1890" as="targetPoint" />
          </mxGeometry>
        </mxCell>
        <mxCell id="nQa_9QxDwxB9bTM9RDev-74" value="" style="endArrow=none;html=1;rounded=0;exitX=0.5;exitY=0.5;exitDx=0;exitDy=0;exitPerimeter=0;entryX=0;entryY=0.5;entryDx=0;entryDy=0;" edge="1" parent="1" source="nQa_9QxDwxB9bTM9RDev-63" target="nQa_9QxDwxB9bTM9RDev-68">
          <mxGeometry width="50" height="50" relative="1" as="geometry">
            <mxPoint x="-10" y="2075" as="sourcePoint" />
            <mxPoint x="373" y="1941" as="targetPoint" />
          </mxGeometry>
        </mxCell>
        <mxCell id="nQa_9QxDwxB9bTM9RDev-75" value="" style="endArrow=none;html=1;rounded=0;exitX=0.5;exitY=0.5;exitDx=0;exitDy=0;exitPerimeter=0;entryX=0;entryY=0.5;entryDx=0;entryDy=0;" edge="1" parent="1" source="nQa_9QxDwxB9bTM9RDev-63" target="nQa_9QxDwxB9bTM9RDev-71">
          <mxGeometry width="50" height="50" relative="1" as="geometry">
            <mxPoint x="-10" y="2075" as="sourcePoint" />
            <mxPoint x="370" y="2075" as="targetPoint" />
          </mxGeometry>
        </mxCell>
        <mxCell id="nQa_9QxDwxB9bTM9RDev-76" value="" style="endArrow=none;html=1;rounded=0;exitX=0.5;exitY=0.5;exitDx=0;exitDy=0;exitPerimeter=0;entryX=0.052;entryY=0.613;entryDx=0;entryDy=0;entryPerimeter=0;" edge="1" parent="1" source="nQa_9QxDwxB9bTM9RDev-40" target="nQa_9QxDwxB9bTM9RDev-32">
          <mxGeometry width="50" height="50" relative="1" as="geometry">
            <mxPoint x="-10" y="1525" as="sourcePoint" />
            <mxPoint x="363" y="1277" as="targetPoint" />
          </mxGeometry>
        </mxCell>
        <mxCell id="nQa_9QxDwxB9bTM9RDev-77" value="" style="group" vertex="1" connectable="0" parent="1">
          <mxGeometry x="940" y="1670" width="150" height="110" as="geometry" />
        </mxCell>
        <mxCell id="nQa_9QxDwxB9bTM9RDev-78" value="" style="ellipse;whiteSpace=wrap;html=1;" vertex="1" parent="nQa_9QxDwxB9bTM9RDev-77">
          <mxGeometry width="150" height="110" as="geometry" />
        </mxCell>
        <mxCell id="nQa_9QxDwxB9bTM9RDev-79" value="bannir un utilisateur" style="text;html=1;align=center;verticalAlign=middle;whiteSpace=wrap;rounded=0;" vertex="1" parent="nQa_9QxDwxB9bTM9RDev-77">
          <mxGeometry x="18.75" y="34.370000000000005" width="112.5" height="41.25" as="geometry" />
        </mxCell>
        <mxCell id="nQa_9QxDwxB9bTM9RDev-80" value="" style="group" vertex="1" connectable="0" parent="1">
          <mxGeometry x="950" y="1810" width="150" height="110" as="geometry" />
        </mxCell>
        <mxCell id="nQa_9QxDwxB9bTM9RDev-81" value="" style="ellipse;whiteSpace=wrap;html=1;" vertex="1" parent="nQa_9QxDwxB9bTM9RDev-80">
          <mxGeometry width="150" height="110" as="geometry" />
        </mxCell>
        <mxCell id="nQa_9QxDwxB9bTM9RDev-82" value="attribuer des rôles" style="text;html=1;align=center;verticalAlign=middle;whiteSpace=wrap;rounded=0;" vertex="1" parent="nQa_9QxDwxB9bTM9RDev-80">
          <mxGeometry x="18.75" y="34.370000000000005" width="112.5" height="41.25" as="geometry" />
        </mxCell>
        <mxCell id="nQa_9QxDwxB9bTM9RDev-85" value="" style="endArrow=none;dashed=1;html=1;dashPattern=1 3;strokeWidth=2;rounded=0;exitX=1;exitY=0;exitDx=0;exitDy=0;entryX=0;entryY=0.5;entryDx=0;entryDy=0;" edge="1" parent="1" source="nQa_9QxDwxB9bTM9RDev-65" target="nQa_9QxDwxB9bTM9RDev-78">
          <mxGeometry width="50" height="50" relative="1" as="geometry">
            <mxPoint x="400" y="1860" as="sourcePoint" />
            <mxPoint x="450" y="1810" as="targetPoint" />
          </mxGeometry>
        </mxCell>
        <mxCell id="nQa_9QxDwxB9bTM9RDev-86" value="" style="endArrow=none;dashed=1;html=1;dashPattern=1 3;strokeWidth=2;rounded=0;entryX=0;entryY=0.5;entryDx=0;entryDy=0;exitX=1.012;exitY=0.421;exitDx=0;exitDy=0;exitPerimeter=0;" edge="1" parent="1" source="nQa_9QxDwxB9bTM9RDev-65" target="nQa_9QxDwxB9bTM9RDev-81">
          <mxGeometry width="50" height="50" relative="1" as="geometry">
            <mxPoint x="520" y="1910" as="sourcePoint" />
            <mxPoint x="950" y="1735" as="targetPoint" />
          </mxGeometry>
        </mxCell>
        <mxCell id="nQa_9QxDwxB9bTM9RDev-87" value="" style="group" vertex="1" connectable="0" parent="1">
          <mxGeometry x="1290" y="1840" width="150" height="110" as="geometry" />
        </mxCell>
        <mxCell id="nQa_9QxDwxB9bTM9RDev-88" value="" style="ellipse;whiteSpace=wrap;html=1;" vertex="1" parent="nQa_9QxDwxB9bTM9RDev-87">
          <mxGeometry width="150" height="110" as="geometry" />
        </mxCell>
        <mxCell id="nQa_9QxDwxB9bTM9RDev-89" value="Valider" style="text;html=1;align=center;verticalAlign=middle;whiteSpace=wrap;rounded=0;" vertex="1" parent="nQa_9QxDwxB9bTM9RDev-87">
          <mxGeometry x="18.75" y="34.370000000000005" width="112.5" height="41.25" as="geometry" />
        </mxCell>
        <mxCell id="nQa_9QxDwxB9bTM9RDev-90" value="" style="group" vertex="1" connectable="0" parent="1">
          <mxGeometry x="1290" y="1980" width="150" height="110" as="geometry" />
        </mxCell>
        <mxCell id="nQa_9QxDwxB9bTM9RDev-91" value="" style="ellipse;whiteSpace=wrap;html=1;" vertex="1" parent="nQa_9QxDwxB9bTM9RDev-90">
          <mxGeometry width="150" height="110" as="geometry" />
        </mxCell>
        <mxCell id="nQa_9QxDwxB9bTM9RDev-92" value="refuser&amp;nbsp;" style="text;html=1;align=center;verticalAlign=middle;whiteSpace=wrap;rounded=0;" vertex="1" parent="nQa_9QxDwxB9bTM9RDev-90">
          <mxGeometry x="18.75" y="34.370000000000005" width="112.5" height="41.25" as="geometry" />
        </mxCell>
        <mxCell id="nQa_9QxDwxB9bTM9RDev-93" value="" style="endArrow=none;dashed=1;html=1;dashPattern=1 3;strokeWidth=2;rounded=0;entryX=0;entryY=0.5;entryDx=0;entryDy=0;" edge="1" parent="1" target="nQa_9QxDwxB9bTM9RDev-88">
          <mxGeometry width="50" height="50" relative="1" as="geometry">
            <mxPoint x="510" y="2050" as="sourcePoint" />
            <mxPoint x="960" y="1875" as="targetPoint" />
          </mxGeometry>
        </mxCell>
        <mxCell id="nQa_9QxDwxB9bTM9RDev-94" value="" style="endArrow=none;dashed=1;html=1;dashPattern=1 3;strokeWidth=2;rounded=0;entryX=0;entryY=0.5;entryDx=0;entryDy=0;exitX=0.919;exitY=0.734;exitDx=0;exitDy=0;exitPerimeter=0;" edge="1" parent="1" source="nQa_9QxDwxB9bTM9RDev-68" target="nQa_9QxDwxB9bTM9RDev-91">
          <mxGeometry width="50" height="50" relative="1" as="geometry">
            <mxPoint x="520" y="2060" as="sourcePoint" />
            <mxPoint x="1300" y="1905" as="targetPoint" />
          </mxGeometry>
        </mxCell>
        <mxCell id="nQa_9QxDwxB9bTM9RDev-95" value="" style="group" vertex="1" connectable="0" parent="1">
          <mxGeometry x="1510" y="2070" width="150" height="110" as="geometry" />
        </mxCell>
        <mxCell id="nQa_9QxDwxB9bTM9RDev-96" value="" style="ellipse;whiteSpace=wrap;html=1;" vertex="1" parent="nQa_9QxDwxB9bTM9RDev-95">
          <mxGeometry width="150" height="110" as="geometry" />
        </mxCell>
        <mxCell id="nQa_9QxDwxB9bTM9RDev-97" value="Valider" style="text;html=1;align=center;verticalAlign=middle;whiteSpace=wrap;rounded=0;" vertex="1" parent="nQa_9QxDwxB9bTM9RDev-95">
          <mxGeometry x="18.75" y="34.370000000000005" width="112.5" height="41.25" as="geometry" />
        </mxCell>
        <mxCell id="nQa_9QxDwxB9bTM9RDev-98" value="" style="group" vertex="1" connectable="0" parent="1">
          <mxGeometry x="1510" y="2210" width="150" height="110" as="geometry" />
        </mxCell>
        <mxCell id="nQa_9QxDwxB9bTM9RDev-99" value="" style="ellipse;whiteSpace=wrap;html=1;" vertex="1" parent="nQa_9QxDwxB9bTM9RDev-98">
          <mxGeometry width="150" height="110" as="geometry" />
        </mxCell>
        <mxCell id="nQa_9QxDwxB9bTM9RDev-100" value="refuser&amp;nbsp;" style="text;html=1;align=center;verticalAlign=middle;whiteSpace=wrap;rounded=0;" vertex="1" parent="nQa_9QxDwxB9bTM9RDev-98">
          <mxGeometry x="18.75" y="34.370000000000005" width="112.5" height="41.25" as="geometry" />
        </mxCell>
        <mxCell id="nQa_9QxDwxB9bTM9RDev-101" value="" style="endArrow=none;dashed=1;html=1;dashPattern=1 3;strokeWidth=2;rounded=0;entryX=0;entryY=0.5;entryDx=0;entryDy=0;" edge="1" parent="1" target="nQa_9QxDwxB9bTM9RDev-96">
          <mxGeometry width="50" height="50" relative="1" as="geometry">
            <mxPoint x="510" y="2190" as="sourcePoint" />
            <mxPoint x="1300" y="2045" as="targetPoint" />
          </mxGeometry>
        </mxCell>
        <mxCell id="nQa_9QxDwxB9bTM9RDev-102" value="" style="endArrow=none;dashed=1;html=1;dashPattern=1 3;strokeWidth=2;rounded=0;entryX=0;entryY=0.5;entryDx=0;entryDy=0;exitX=0.985;exitY=0.654;exitDx=0;exitDy=0;exitPerimeter=0;" edge="1" parent="1" source="nQa_9QxDwxB9bTM9RDev-71" target="nQa_9QxDwxB9bTM9RDev-99">
          <mxGeometry width="50" height="50" relative="1" as="geometry">
            <mxPoint x="520" y="2200" as="sourcePoint" />
            <mxPoint x="1520" y="2135" as="targetPoint" />
          </mxGeometry>
        </mxCell>
        <mxCell id="nQa_9QxDwxB9bTM9RDev-103" value="" style="group" vertex="1" connectable="0" parent="1">
          <mxGeometry x="1910" y="970" width="303" height="184" as="geometry" />
        </mxCell>
        <mxCell id="nQa_9QxDwxB9bTM9RDev-104" value="" style="ellipse;whiteSpace=wrap;html=1;" vertex="1" parent="nQa_9QxDwxB9bTM9RDev-103">
          <mxGeometry width="303" height="184" as="geometry" />
        </mxCell>
        <mxCell id="nQa_9QxDwxB9bTM9RDev-105" value="&lt;font style=&quot;font-size: 36px;&quot;&gt;Authentification&lt;/font&gt;" style="text;html=1;align=center;verticalAlign=middle;whiteSpace=wrap;rounded=0;" vertex="1" parent="nQa_9QxDwxB9bTM9RDev-103">
          <mxGeometry x="37.875" y="57.491636363636374" width="227.25000000000003" height="69" as="geometry" />
        </mxCell>
        <mxCell id="nQa_9QxDwxB9bTM9RDev-107" value="" style="endArrow=none;dashed=1;html=1;dashPattern=1 3;strokeWidth=2;rounded=0;edgeStyle=orthogonalEdgeStyle;entryX=0.5;entryY=0;entryDx=0;entryDy=0;" edge="1" parent="1" source="nQa_9QxDwxB9bTM9RDev-27" target="nQa_9QxDwxB9bTM9RDev-104">
          <mxGeometry width="50" height="50" relative="1" as="geometry">
            <mxPoint x="500" y="310" as="sourcePoint" />
            <mxPoint x="1550" y="860" as="targetPoint" />
          </mxGeometry>
        </mxCell>
        <mxCell id="nQa_9QxDwxB9bTM9RDev-108" value="" style="endArrow=none;dashed=1;html=1;dashPattern=1 3;strokeWidth=2;rounded=0;edgeStyle=orthogonalEdgeStyle;entryX=0.437;entryY=0.042;entryDx=0;entryDy=0;exitX=1;exitY=0.5;exitDx=0;exitDy=0;entryPerimeter=0;" edge="1" parent="1" source="nQa_9QxDwxB9bTM9RDev-24" target="nQa_9QxDwxB9bTM9RDev-104">
          <mxGeometry width="50" height="50" relative="1" as="geometry">
            <mxPoint x="510" y="320" as="sourcePoint" />
            <mxPoint x="2072" y="980" as="targetPoint" />
            <Array as="points">
              <mxPoint x="2042" y="443" />
            </Array>
          </mxGeometry>
        </mxCell>
        <mxCell id="nQa_9QxDwxB9bTM9RDev-109" value="" style="endArrow=none;dashed=1;html=1;dashPattern=1 3;strokeWidth=2;rounded=0;edgeStyle=orthogonalEdgeStyle;entryX=0.388;entryY=0.009;entryDx=0;entryDy=0;exitX=1;exitY=0.5;exitDx=0;exitDy=0;entryPerimeter=0;" edge="1" parent="1" source="nQa_9QxDwxB9bTM9RDev-21" target="nQa_9QxDwxB9bTM9RDev-104">
          <mxGeometry width="50" height="50" relative="1" as="geometry">
            <mxPoint x="499" y="453" as="sourcePoint" />
            <mxPoint x="2052" y="988" as="targetPoint" />
            <Array as="points">
              <mxPoint x="2028" y="573" />
            </Array>
          </mxGeometry>
        </mxCell>
        <mxCell id="nQa_9QxDwxB9bTM9RDev-110" value="" style="endArrow=none;dashed=1;html=1;dashPattern=1 3;strokeWidth=2;rounded=0;edgeStyle=orthogonalEdgeStyle;entryX=0.29;entryY=0.09;entryDx=0;entryDy=0;exitX=1;exitY=0.5;exitDx=0;exitDy=0;entryPerimeter=0;" edge="1" parent="1" source="nQa_9QxDwxB9bTM9RDev-15" target="nQa_9QxDwxB9bTM9RDev-104">
          <mxGeometry width="50" height="50" relative="1" as="geometry">
            <mxPoint x="499" y="583" as="sourcePoint" />
            <mxPoint x="2038" y="982" as="targetPoint" />
            <Array as="points">
              <mxPoint x="500" y="710" />
              <mxPoint x="1998" y="710" />
            </Array>
          </mxGeometry>
        </mxCell>
        <mxCell id="nQa_9QxDwxB9bTM9RDev-112" value="" style="endArrow=none;dashed=1;html=1;dashPattern=1 3;strokeWidth=2;rounded=0;edgeStyle=orthogonalEdgeStyle;entryX=0.5;entryY=1;entryDx=0;entryDy=0;exitX=1;exitY=0.5;exitDx=0;exitDy=0;" edge="1" parent="1" source="nQa_9QxDwxB9bTM9RDev-42" target="nQa_9QxDwxB9bTM9RDev-104">
          <mxGeometry width="50" height="50" relative="1" as="geometry">
            <mxPoint x="520" y="733" as="sourcePoint" />
            <mxPoint x="2018" y="1007" as="targetPoint" />
            <Array as="points">
              <mxPoint x="2040" y="1245" />
              <mxPoint x="2040" y="1154" />
            </Array>
          </mxGeometry>
        </mxCell>
        <mxCell id="nQa_9QxDwxB9bTM9RDev-113" value="" style="endArrow=none;dashed=1;html=1;dashPattern=1 3;strokeWidth=2;rounded=0;edgeStyle=orthogonalEdgeStyle;entryX=0.5;entryY=1;entryDx=0;entryDy=0;exitX=1;exitY=0.5;exitDx=0;exitDy=0;" edge="1" parent="1" source="nQa_9QxDwxB9bTM9RDev-45">
          <mxGeometry width="50" height="50" relative="1" as="geometry">
            <mxPoint x="510" y="1255" as="sourcePoint" />
            <mxPoint x="2072" y="1164" as="targetPoint" />
            <Array as="points">
              <mxPoint x="2080" y="1395" />
              <mxPoint x="2080" y="1140" />
              <mxPoint x="2072" y="1140" />
            </Array>
          </mxGeometry>
        </mxCell>
        <mxCell id="nQa_9QxDwxB9bTM9RDev-114" value="" style="endArrow=none;dashed=1;html=1;dashPattern=1 3;strokeWidth=2;rounded=0;edgeStyle=orthogonalEdgeStyle;entryX=1;entryY=1;entryDx=0;entryDy=0;exitX=1;exitY=0.5;exitDx=0;exitDy=0;" edge="1" parent="1" source="nQa_9QxDwxB9bTM9RDev-48" target="nQa_9QxDwxB9bTM9RDev-104">
          <mxGeometry width="50" height="50" relative="1" as="geometry">
            <mxPoint x="510" y="1255" as="sourcePoint" />
            <mxPoint x="2072" y="1164" as="targetPoint" />
            <Array as="points">
              <mxPoint x="510" y="1550" />
              <mxPoint x="2170" y="1550" />
            </Array>
          </mxGeometry>
        </mxCell>
        <mxCell id="nQa_9QxDwxB9bTM9RDev-115" value="" style="endArrow=none;dashed=1;html=1;dashPattern=1 3;strokeWidth=2;rounded=0;edgeStyle=orthogonalEdgeStyle;entryX=0.94;entryY=0.725;entryDx=0;entryDy=0;exitX=1;exitY=0.5;exitDx=0;exitDy=0;entryPerimeter=0;" edge="1" parent="1" source="nQa_9QxDwxB9bTM9RDev-57" target="nQa_9QxDwxB9bTM9RDev-104">
          <mxGeometry width="50" height="50" relative="1" as="geometry">
            <mxPoint x="520" y="1555" as="sourcePoint" />
            <mxPoint x="2179" y="1137" as="targetPoint" />
            <Array as="points">
              <mxPoint x="510" y="1650" />
              <mxPoint x="2230" y="1650" />
              <mxPoint x="2230" y="1137" />
              <mxPoint x="2195" y="1137" />
            </Array>
          </mxGeometry>
        </mxCell>
        <mxCell id="nQa_9QxDwxB9bTM9RDev-116" value="" style="endArrow=none;dashed=1;html=1;dashPattern=1 3;strokeWidth=2;rounded=0;edgeStyle=orthogonalEdgeStyle;entryX=1;entryY=0.5;entryDx=0;entryDy=0;" edge="1" parent="1" target="nQa_9QxDwxB9bTM9RDev-104">
          <mxGeometry width="50" height="50" relative="1" as="geometry">
            <mxPoint x="510" y="1890" as="sourcePoint" />
            <mxPoint x="2205" y="1113" as="targetPoint" />
            <Array as="points">
              <mxPoint x="520" y="1890" />
              <mxPoint x="520" y="1800" />
              <mxPoint x="2330" y="1800" />
              <mxPoint x="2330" y="1070" />
              <mxPoint x="2205" y="1070" />
              <mxPoint x="2205" y="1062" />
            </Array>
          </mxGeometry>
        </mxCell>
        <mxCell id="nQa_9QxDwxB9bTM9RDev-117" value="" style="endArrow=none;dashed=1;html=1;dashPattern=1 3;strokeWidth=2;rounded=0;edgeStyle=orthogonalEdgeStyle;entryX=0.924;entryY=0.272;entryDx=0;entryDy=0;exitX=0.991;exitY=0.533;exitDx=0;exitDy=0;exitPerimeter=0;entryPerimeter=0;" edge="1" parent="1" source="nQa_9QxDwxB9bTM9RDev-68" target="nQa_9QxDwxB9bTM9RDev-104">
          <mxGeometry width="50" height="50" relative="1" as="geometry">
            <mxPoint x="520" y="1900" as="sourcePoint" />
            <mxPoint x="2223" y="1072" as="targetPoint" />
            <Array as="points">
              <mxPoint x="520" y="2069" />
              <mxPoint x="520" y="1970" />
              <mxPoint x="2430" y="1970" />
              <mxPoint x="2430" y="1020" />
            </Array>
          </mxGeometry>
        </mxCell>
        <mxCell id="nQa_9QxDwxB9bTM9RDev-118" value="" style="endArrow=none;dashed=1;html=1;dashPattern=1 3;strokeWidth=2;rounded=0;edgeStyle=orthogonalEdgeStyle;exitX=1;exitY=0.5;exitDx=0;exitDy=0;" edge="1" parent="1" source="nQa_9QxDwxB9bTM9RDev-71" target="nQa_9QxDwxB9bTM9RDev-104">
          <mxGeometry width="50" height="50" relative="1" as="geometry">
            <mxPoint x="519" y="2079" as="sourcePoint" />
            <mxPoint x="2200" y="1030" as="targetPoint" />
            <Array as="points">
              <mxPoint x="530" y="2205" />
              <mxPoint x="530" y="2190" />
              <mxPoint x="2510" y="2190" />
              <mxPoint x="2510" y="960" />
              <mxPoint x="2150" y="960" />
            </Array>
          </mxGeometry>
        </mxCell>
        <mxCell id="nQa_9QxDwxB9bTM9RDev-119" value="&lt;font style=&quot;font-size: 18px;&quot;&gt;&amp;lt;&amp;lt;include&amp;gt;&amp;gt;&lt;/font&gt;" style="text;html=1;align=center;verticalAlign=middle;whiteSpace=wrap;rounded=0;" vertex="1" parent="1">
          <mxGeometry x="1170" y="270" width="60" height="30" as="geometry" />
        </mxCell>
        <mxCell id="nQa_9QxDwxB9bTM9RDev-120" value="&lt;font style=&quot;font-size: 18px;&quot;&gt;&amp;lt;&amp;lt;include&amp;gt;&amp;gt;&lt;/font&gt;" style="text;html=1;align=center;verticalAlign=middle;whiteSpace=wrap;rounded=0;" vertex="1" parent="1">
          <mxGeometry x="1181" y="410" width="60" height="30" as="geometry" />
        </mxCell>
        <mxCell id="nQa_9QxDwxB9bTM9RDev-121" value="&lt;font style=&quot;font-size: 18px;&quot;&gt;&amp;lt;&amp;lt;include&amp;gt;&amp;gt;&lt;/font&gt;" style="text;html=1;align=center;verticalAlign=middle;whiteSpace=wrap;rounded=0;" vertex="1" parent="1">
          <mxGeometry x="1181" y="540" width="60" height="30" as="geometry" />
        </mxCell>
        <mxCell id="nQa_9QxDwxB9bTM9RDev-122" value="&lt;font style=&quot;font-size: 18px;&quot;&gt;&amp;lt;&amp;lt;include&amp;gt;&amp;gt;&lt;/font&gt;" style="text;html=1;align=center;verticalAlign=middle;whiteSpace=wrap;rounded=0;" vertex="1" parent="1">
          <mxGeometry x="1181" y="680" width="60" height="30" as="geometry" />
        </mxCell>
        <mxCell id="nQa_9QxDwxB9bTM9RDev-123" value="&lt;font style=&quot;font-size: 18px;&quot;&gt;&amp;lt;&amp;lt;include&amp;gt;&amp;gt;&lt;/font&gt;" style="text;html=1;align=center;verticalAlign=middle;whiteSpace=wrap;rounded=0;" vertex="1" parent="1">
          <mxGeometry x="1181" y="1200" width="60" height="30" as="geometry" />
        </mxCell>
        <mxCell id="nQa_9QxDwxB9bTM9RDev-127" value="&lt;font style=&quot;font-size: 18px;&quot;&gt;&amp;lt;&amp;lt;include&amp;gt;&amp;gt;&lt;/font&gt;" style="text;html=1;align=center;verticalAlign=middle;whiteSpace=wrap;rounded=0;" vertex="1" parent="1">
          <mxGeometry x="1181" y="1355" width="60" height="30" as="geometry" />
        </mxCell>
        <mxCell id="nQa_9QxDwxB9bTM9RDev-128" value="&lt;font style=&quot;font-size: 18px;&quot;&gt;&amp;lt;&amp;lt;include&amp;gt;&amp;gt;&lt;/font&gt;" style="text;html=1;align=center;verticalAlign=middle;whiteSpace=wrap;rounded=0;" vertex="1" parent="1">
          <mxGeometry x="1191" y="1511" width="60" height="30" as="geometry" />
        </mxCell>
        <mxCell id="nQa_9QxDwxB9bTM9RDev-129" value="&lt;font style=&quot;font-size: 18px;&quot;&gt;&amp;lt;&amp;lt;include&amp;gt;&amp;gt;&lt;/font&gt;" style="text;html=1;align=center;verticalAlign=middle;whiteSpace=wrap;rounded=0;" vertex="1" parent="1">
          <mxGeometry x="1570" y="1620" width="60" height="30" as="geometry" />
        </mxCell>
        <mxCell id="nQa_9QxDwxB9bTM9RDev-130" value="&lt;font style=&quot;font-size: 18px;&quot;&gt;&amp;lt;&amp;lt;include&amp;gt;&amp;gt;&lt;/font&gt;" style="text;html=1;align=center;verticalAlign=middle;whiteSpace=wrap;rounded=0;" vertex="1" parent="1">
          <mxGeometry x="1590" y="1762" width="60" height="30" as="geometry" />
        </mxCell>
        <mxCell id="nQa_9QxDwxB9bTM9RDev-131" value="&lt;font style=&quot;font-size: 18px;&quot;&gt;&amp;lt;&amp;lt;include&amp;gt;&amp;gt;&lt;/font&gt;" style="text;html=1;align=center;verticalAlign=middle;whiteSpace=wrap;rounded=0;" vertex="1" parent="1">
          <mxGeometry x="1735" y="1931" width="60" height="30" as="geometry" />
        </mxCell>
        <mxCell id="nQa_9QxDwxB9bTM9RDev-132" value="&lt;font style=&quot;font-size: 18px;&quot;&gt;&amp;lt;&amp;lt;include&amp;gt;&amp;gt;&lt;/font&gt;" style="text;html=1;align=center;verticalAlign=middle;whiteSpace=wrap;rounded=0;" vertex="1" parent="1">
          <mxGeometry x="1936" y="2154" width="60" height="30" as="geometry" />
        </mxCell>
        <mxCell id="nQa_9QxDwxB9bTM9RDev-133" value="&lt;font style=&quot;font-size: 18px;&quot;&gt;&amp;lt;&amp;lt;extend&amp;gt;&amp;gt;&lt;/font&gt;" style="text;html=1;align=center;verticalAlign=middle;whiteSpace=wrap;rounded=0;rotation=-5;" vertex="1" parent="1">
          <mxGeometry x="1100" y="2109" width="60" height="30" as="geometry" />
        </mxCell>
        <mxCell id="nQa_9QxDwxB9bTM9RDev-134" value="&lt;font style=&quot;font-size: 18px;&quot;&gt;&amp;lt;&amp;lt;extend&amp;gt;&amp;gt;&lt;/font&gt;" style="text;html=1;align=center;verticalAlign=middle;whiteSpace=wrap;rounded=0;rotation=0;" vertex="1" parent="1">
          <mxGeometry x="1110" y="2210" width="60" height="30" as="geometry" />
        </mxCell>
        <mxCell id="nQa_9QxDwxB9bTM9RDev-135" value="&lt;font style=&quot;font-size: 18px;&quot;&gt;&amp;lt;&amp;lt;extend&amp;gt;&amp;gt;&lt;/font&gt;" style="text;html=1;align=center;verticalAlign=middle;whiteSpace=wrap;rounded=0;rotation=-5;" vertex="1" parent="1">
          <mxGeometry x="1057" y="2022" width="60" height="30" as="geometry" />
        </mxCell>
        <mxCell id="nQa_9QxDwxB9bTM9RDev-136" value="&lt;font style=&quot;font-size: 18px;&quot;&gt;&amp;lt;&amp;lt;extend&amp;gt;&amp;gt;&lt;/font&gt;" style="text;html=1;align=center;verticalAlign=middle;whiteSpace=wrap;rounded=0;rotation=-15;" vertex="1" parent="1">
          <mxGeometry x="1150" y="1880" width="60" height="30" as="geometry" />
        </mxCell>
        <mxCell id="nQa_9QxDwxB9bTM9RDev-137" value="&lt;font style=&quot;font-size: 18px;&quot;&gt;&amp;lt;&amp;lt;extend&amp;gt;&amp;gt;&lt;/font&gt;" style="text;html=1;align=center;verticalAlign=middle;whiteSpace=wrap;rounded=0;rotation=-15;" vertex="1" parent="1">
          <mxGeometry x="800" y="1724" width="60" height="30" as="geometry" />
        </mxCell>
        <mxCell id="nQa_9QxDwxB9bTM9RDev-140" value="&lt;font style=&quot;font-size: 18px;&quot;&gt;&amp;lt;&amp;lt;extend&amp;gt;&amp;gt;&lt;/font&gt;" style="text;html=1;align=center;verticalAlign=middle;whiteSpace=wrap;rounded=0;rotation=0;" vertex="1" parent="1">
          <mxGeometry x="767" y="1850" width="60" height="30" as="geometry" />
        </mxCell>
      </root>
    </mxGraphModel>
  </diagram>
</mxfile>
